HIERARCHY
ROOT joint_Root
{
	OFFSET 0.0 0.0 0.0
	CHANNELS 6 Xposition Yposition Zposition Zrotation Xrotation Yrotation 
	JOINT Hips
	{
		OFFSET 4.5925 91.4895 -427.239
		CHANNELS 6 Xposition Yposition Zposition Zrotation Xrotation Yrotation 
		JOINT Spine
		{
			OFFSET 15.7357 0.0 0.0
			CHANNELS 6 Xposition Yposition Zposition Zrotation Xrotation Yrotation 
			JOINT Chest
			{
				OFFSET 8.98455 -0.406207 0.0
				CHANNELS 6 Xposition Yposition Zposition Zrotation Xrotation Yrotation 
				JOINT Neck
				{
					OFFSET 16.3773 0.0 0.0
					CHANNELS 6 Xposition Yposition Zposition Zrotation Xrotation Yrotation 
					JOINT Head
					{
						OFFSET 6.45672 0.0 0.0
						CHANNELS 6 Xposition Yposition Zposition Zrotation Xrotation Yrotation 
						End Site
						{
							OFFSET 0.0 0.0 0.0
						}
					}
				}
				JOINT Shoulder_L
				{
					OFFSET 12.9942 -0.242716 4.98039
					CHANNELS 6 Xposition Yposition Zposition Zrotation Xrotation Yrotation 
					JOINT UpperArm_L
					{
						OFFSET 5.34809 0.0 0.0
						CHANNELS 6 Xposition Yposition Zposition Zrotation Xrotation Yrotation 
						JOINT LowerArm_L
						{
							OFFSET 24.3286 1.87007e-05 0.0
							CHANNELS 6 Xposition Yposition Zposition Zrotation Xrotation Yrotation 
							JOINT Hand_L
							{
								OFFSET 22.2916 0.0 0.0
								CHANNELS 6 Xposition Yposition Zposition Zrotation Xrotation Yrotation 
								End Site
								{
									OFFSET 0.0 0.0 0.0
								}
							}
						}
					}
				}
				JOINT Shoulder_R
				{
					OFFSET 12.9945 -0.242716 -4.98039
					CHANNELS 6 Xposition Yposition Zposition Zrotation Xrotation Yrotation 
					JOINT UpperArm_R
					{
						OFFSET -5.34813 0.0 0.0
						CHANNELS 6 Xposition Yposition Zposition Zrotation Xrotation Yrotation 
						JOINT LowerArm_R
						{
							OFFSET -24.3289 0.000322201 0.0
							CHANNELS 6 Xposition Yposition Zposition Zrotation Xrotation Yrotation 
							JOINT Hand_R
							{
								OFFSET -22.2915 -0.000108084 0.0
								CHANNELS 6 Xposition Yposition Zposition Zrotation Xrotation Yrotation 
								End Site
								{
									OFFSET 0.0 0.0 0.0
								}
							}
						}
					}
				}
			}
		}
		JOINT UpperLeg_L
		{
			OFFSET -2.19248 -6.46944 0.0
			CHANNELS 6 Xposition Yposition Zposition Zrotation Xrotation Yrotation 
			JOINT LowerLeg_L
			{
				OFFSET 39.0811 0.0 -1.23785e-05
				CHANNELS 6 Xposition Yposition Zposition Zrotation Xrotation Yrotation 
				JOINT Foot_L
				{
					OFFSET 40.9854 0.0 -1.26872e-05
					CHANNELS 6 Xposition Yposition Zposition Zrotation Xrotation Yrotation 
					JOINT Toes_L
					{
						OFFSET 11.7543 0.0 0.0
						CHANNELS 6 Xposition Yposition Zposition Zrotation Xrotation Yrotation 
						End Site
						{
							OFFSET 0.0 0.0 0.0
						}
					}
				}
			}
		}
		JOINT UpperLeg_R
		{
			OFFSET -2.19251 6.46944 0.0
			CHANNELS 6 Xposition Yposition Zposition Zrotation Xrotation Yrotation 
			JOINT LowerLeg_R
			{
				OFFSET -39.0811 -0.00228153 -0.0401928
				CHANNELS 6 Xposition Yposition Zposition Zrotation Xrotation Yrotation 
				JOINT Foot_R
				{
					OFFSET -40.9854 0.0 0.0
					CHANNELS 6 Xposition Yposition Zposition Zrotation Xrotation Yrotation 
					JOINT Toes_R
					{
						OFFSET -11.7543 0.0 0.0
						CHANNELS 6 Xposition Yposition Zposition Zrotation Xrotation Yrotation 
						End Site
						{
							OFFSET 0.0 0.0 0.0
						}
					}
				}
			}
		}
	}
}
MOTION
Frames:	4
Frame Time:	0.0333333
0.000000 0.000000 0.000000 0.000000 0.000000 -0.000000 -0.758805 85.863500 -9.493590 87.916500 -5.178200 -2.643020 15.735700 0.000005 -0.000001 90.135600 79.373700 -90.142900 8.984550 -0.406207 -0.000000 13.486500 0.049387 -0.020452 16.377300 -0.000001 -0.000001 -3.841500 -3.483750 2.333450 6.456720 -0.000001 -0.000000 -13.994800 -3.737540 3.183700 12.994200 -0.242716 4.980390 -89.980100 -0.043258 -65.252100 5.348090 -0.000007 -0.000001 -72.766900 7.551450 16.201300 24.328600 0.000019 0.000005 2.073830 8.581160 -13.652300 22.291600 -0.000001 0.000005 9.184450 5.193850 2.874790 12.994500 -0.242716 -4.980390 87.956600 5.852960 -70.716000 -5.348130 -0.000001 -0.000004 -66.975400 0.820416 5.537950 -24.328900 0.000322 -0.000009 -1.952350 -18.167800 -6.226510 -22.291500 -0.000108 -0.000004 10.060600 5.292790 0.290795 -2.192480 -6.469440 -0.000000 -176.419000 -11.143200 -31.240400 39.081100 -0.000007 -0.000012 -0.345034 0.264116 52.567500 40.985400 -0.000006 -0.000013 -0.348353 1.561390 -73.886800 11.754300 -0.000000 0.000003 -0.000167 -0.001594 -16.638000 -2.192510 6.469440 -0.000001 -176.418000 12.813700 148.686000 -39.081100 -0.002282 -0.040193 -0.024181 0.021992 51.271700 -40.985400 0.000008 0.000006 5.844490 4.239840 -73.445800 -11.754300 -0.000006 -0.000006 -0.003479 -0.045904 -18.440100
0.000000 0.000000 0.000000 0.000000 0.000000 -0.000000 -1.010140 85.104400 -8.723200 87.765700 -5.114670 -0.825763 15.735700 0.000005 -0.000001 89.228500 79.215300 -89.333000 8.984550 -0.406207 -0.000000 13.801300 -0.292646 -0.173582 16.377300 -0.000001 -0.000001 -3.343780 -2.816800 1.979570 6.456720 -0.000001 -0.000000 -13.689700 -2.985810 3.299850 12.994200 -0.242716 4.980390 -89.445900 -1.190540 -65.037300 5.348090 -0.000007 -0.000001 -69.153300 -2.719880 17.070300 24.328600 0.000019 0.000005 2.164910 14.226900 -8.744100 22.291600 -0.000001 0.000005 9.500040 5.144250 4.076810 12.994500 -0.242716 -4.980390 88.379000 4.503770 -70.181700 -5.348130 -0.000001 -0.000004 -64.648200 -9.790880 4.861910 -24.328900 0.000322 -0.000009 -0.002757 -8.633140 -0.000051 -22.291500 -0.000108 -0.000004 5.943160 5.126860 4.494880 -2.192480 -6.469440 -0.000000 -175.635000 -11.654200 -30.009500 39.081100 -0.000007 -0.000012 -0.386380 0.269875 55.067700 40.985400 -0.000006 -0.000013 -0.259800 2.228280 -75.701700 11.754300 -0.000000 0.000003 -0.000230 -0.002086 -16.655900 -2.192510 6.469440 -0.000001 -176.742000 12.025500 149.953000 -39.081100 -0.002282 -0.040193 -0.090896 0.069007 53.754300 -40.985400 0.000008 0.000006 5.346670 3.164810 -75.196500 -11.754300 -0.000006 -0.000006 -0.002571 -0.035650 -18.022800
0.000000 0.000000 0.000000 0.000000 0.000000 -0.000000 -1.283200 85.524900 -7.387840 87.725600 -4.441960 0.873158 15.735700 0.000005 -0.000001 88.286400 79.618200 -88.387300 8.984550 -0.406207 -0.000000 12.988400 -0.619255 -0.131312 16.377300 -0.000001 -0.000001 -2.895450 -2.548150 1.748230 6.456720 -0.000001 -0.000000 -12.967500 -2.589940 2.752450 12.994200 -0.242716 4.980390 -88.574000 -3.089730 -65.209500 5.348090 -0.000007 -0.000001 -61.348700 -17.628400 17.687900 24.328600 0.000019 0.000005 1.537970 12.631200 -6.999600 22.291600 -0.000001 0.000005 12.585100 5.068240 5.828510 12.994500 -0.242716 -4.980390 89.148300 2.306440 -69.725200 -5.348130 -0.000001 -0.000004 -59.656900 -19.640000 4.676850 -24.328900 0.000322 -0.000009 -0.001022 -2.796720 -0.000022 -22.291500 -0.000108 -0.000004 4.494390 4.866000 10.054700 -2.192480 -6.469440 -0.000000 -174.936000 -11.101300 -26.577900 39.081100 -0.000007 -0.000012 -0.401692 0.294149 53.786600 40.985400 -0.000006 -0.000013 -0.421767 2.564020 -76.112400 11.754300 -0.000000 0.000003 -0.000231 -0.002093 -16.656200 -2.192510 6.469440 -0.000001 -177.136000 11.906400 153.517000 -39.081100 -0.002282 -0.040193 -0.056571 0.045849 52.526600 -40.985400 0.000008 0.000006 5.307150 2.243630 -75.773300 -11.754300 -0.000006 -0.000006 -0.002129 -0.030325 -17.806200
0.000000 0.000000 0.000000 0.000000 0.000000 -0.000000 -1.481810 87.049700 -5.684650 88.105400 -3.372790 2.108810 15.735700 0.000005 -0.000001 87.412900 80.729800 -87.560000 8.984550 -0.406207 -0.000000 10.755300 -0.834706 -0.215370 16.377300 -0.000001 -0.000001 -1.944920 -2.710450 1.510620 6.456720 -0.000001 -0.000000 -11.337200 -2.336640 2.009270 12.994200 -0.242716 4.980390 -87.724400 -5.076280 -65.814400 5.348090 -0.000007 -0.000001 -51.262900 -30.277100 16.325300 24.328600 0.000019 0.000005 1.524290 13.381300 -6.558930 22.291600 -0.000001 0.000005 16.674600 4.997270 7.374480 12.994500 -0.242716 -4.980390 89.880500 0.307855 -68.780800 -5.348130 -0.000001 -0.000004 -52.211700 -23.749100 3.370690 -24.328900 0.000322 -0.000009 -0.001044 -2.631660 -0.000022 -22.291500 -0.000108 -0.000004 1.187380 4.821430 10.907400 -2.192480 -6.469440 -0.000000 -174.884000 -10.017700 -21.428000 39.081100 -0.000007 -0.000012 -0.368984 0.326172 48.525000 40.985400 -0.000006 -0.000013 -0.667766 2.758410 -74.823900 11.754300 -0.000000 0.000003 -0.000227 -0.002061 -16.655000 -2.192510 6.469440 -0.000001 -177.968000 13.252900 158.751000 -39.081100 -0.002282 -0.040193 0.055661 -0.047871 47.589100 -40.985400 0.000008 0.000006 6.038880 2.445010 -74.909700 -11.754300 -0.000006 -0.000006 -0.002360 -0.033134 -17.920500
